<?xml version="1.0" standalone="no"?><!DOCTYPE svg PUBLIC "-//W3C//DTD SVG 1.1//EN" "http://www.w3.org/Graphics/SVG/1.1/DTD/svg11.dtd"><svg t="1533289272395" class="icon" style="" viewBox="0 0 1024 1024" version="1.1" xmlns="http://www.w3.org/2000/svg" p-id="1162" xmlns:xlink="http://www.w3.org/1999/xlink" width="30" height="30"><defs><style type="text/css"></style></defs><path d="M896 307.2C896 313.6 889.6 320 883.2 320L140.8 320C134.4 320 128 313.6 128 307.2L128 224c0-6.4 6.4-12.8 12.8-12.8l742.4 0c6.4 0 12.8 6.4 12.8 12.8L896 307.2zM896 800c0 6.4-6.4 12.8-12.8 12.8L140.8 812.8c-6.4 0-12.8-6.4-12.8-12.8l0-83.2C128 710.4 134.4 704 140.8 704l742.4 0c6.4 0 12.8 6.4 12.8 12.8L896 800zM294.4 633.6c0 6.4-6.4 12.8-12.8 12.8-6.4 0-6.4 0-12.8-6.4L147.2 524.8c0 0-6.4-6.4-6.4-12.8s0-6.4 6.4-12.8l121.6-121.6c0 0 6.4-6.4 12.8-6.4 6.4 0 12.8 6.4 12.8 12.8L294.4 633.6zM896 473.6c0 6.4-6.4 12.8-12.8 12.8L416 486.4c-6.4 0-12.8-6.4-12.8-12.8L403.2 390.4c0-6.4 6.4-12.8 12.8-12.8l467.2 0C889.6 377.6 896 384 896 390.4L896 473.6zM896 633.6c0 6.4-6.4 12.8-12.8 12.8L416 646.4c-6.4 0-12.8-6.4-12.8-12.8L403.2 550.4c0-6.4 6.4-12.8 12.8-12.8l467.2 0c6.4 0 12.8 6.4 12.8 12.8L896 633.6z" p-id="1163" fill="#ffffff"></path></svg>